# xmcd
#
# Track frame offsets:
# 225
# 16526
# 44841
# 59082
# 76628
# 96844
# 119660
# 131272
# 147961
# 165577
# 185130
# 198466
# 216813
# 235622
# 251696
#
# Disc length: 3583 seconds
#
#
# Revision: 0
# Processed by: cddbd v1.4PL0 Copyright (c) Steve Scherf et al.
# Submitted via: FreeRIP 2.35 
#
DISCID=d40dfc0f
DTITLE=The country trail band and Wim pols  - Make up your mind
DYEAR=1900
DGENRE=Gospel
TTITLE0=If you feel burnt up
TTITLE1=I love You (with Thirza)
TTITLE2=Find a way
TTITLE3=A bibble and a bus ticket home (with Thirza)
TTITLE4=The rope
TTITLE5=Make up you mind
TTITLE6=The mirror
TTITLE7=Denying ( with Thirza)
TTITLE8=An unchanged message to a changing world
TTITLE9=Lady's blues
TTITLE10=Missed chances ( with Thirza)
TTITLE11=The brightest Star
TTITLE12=They need love (duet with Thécla Pot)
TTITLE13=A beaten enemy (with Thirza)
TTITLE14=Lord, I put my friends in Your hands ( with Tirza)
EXTD=With special guests Thirza
EXTT0=
EXTT1=
EXTT2=
EXTT3=
EXTT4=
EXTT5=
EXTT6=
EXTT7=
EXTT8=
EXTT9=
EXTT10=
EXTT11=
EXTT12=
EXTT13=
EXTT14=
PLAYORDER=
